<svg width="37" height="34" viewBox="0 0 37 34" fill="none" xmlns="http://www.w3.org/2000/svg">
<path d="M16.5 24.8342L19.8333 28.1675C20.1616 28.4958 20.5514 28.7562 20.9803 28.9339C21.4093 29.1116 21.869 29.203 22.3333 29.203C22.7976 29.203 23.2574 29.1116 23.6863 28.9339C24.1153 28.7562 24.505 28.4958 24.8333 28.1675C25.1616 27.8392 25.4221 27.4494 25.5997 27.0205C25.7774 26.5915 25.8689 26.1318 25.8689 25.6675C25.8689 25.2032 25.7774 24.7435 25.5997 24.3145C25.4221 23.8856 25.1616 23.4958 24.8333 23.1675M21.5 19.8342L25.6667 24.0008C26.3297 24.6639 27.229 25.0364 28.1667 25.0364C29.1043 25.0364 30.0036 24.6639 30.6667 24.0008C31.3297 23.3378 31.7022 22.4385 31.7022 21.5008C31.7022 20.5632 31.3297 19.6639 30.6667 19.0008L24.2 12.5342C23.2625 11.5978 21.9917 11.0719 20.6667 11.0719C19.3417 11.0719 18.0708 11.5978 17.1333 12.5342L15.6667 14.0008C15.0036 14.6639 14.1043 15.0364 13.1667 15.0364C12.229 15.0364 11.3297 14.6639 10.6667 14.0008C10.0036 13.3378 9.63113 12.4385 9.63113 11.5008C9.63113 10.5632 10.0036 9.66388 10.6667 9.00084L15.35 4.31751C16.8704 2.80108 18.8532 1.83509 20.9844 1.57246C23.1156 1.30983 25.2736 1.76556 27.1167 2.86751L27.9 3.33417C28.6096 3.76248 29.4534 3.91103 30.2667 3.75084L33.1667 3.16751M33.1667 1.50084L34.8333 19.8342H31.5M3.16667 1.50084L1.5 19.8342L12.3333 30.6675C12.9964 31.3305 13.8957 31.703 14.8333 31.703C15.771 31.703 16.6703 31.3305 17.3333 30.6675C17.9964 30.0045 18.3689 29.1052 18.3689 28.1675C18.3689 27.2298 17.9964 26.3305 17.3333 25.6675M3.16667 3.16751H16.5" stroke="#F62877" stroke-width="3" stroke-linecap="round" stroke-linejoin="round"/>
</svg>
