<svg width="30" height="37" viewBox="0 0 30 37" fill="none" xmlns="http://www.w3.org/2000/svg">
<path d="M9.83333 18.1674L13.1667 21.5007L19.8333 14.8341M28.1667 19.8341C28.1667 28.1674 22.3333 32.3341 15.4 34.7508C15.0369 34.8738 14.6426 34.8679 14.2833 34.7341C7.33333 32.3341 1.5 28.1674 1.5 19.8341V8.16742C1.5 7.72539 1.6756 7.30147 1.98816 6.98891C2.30072 6.67634 2.72464 6.50075 3.16667 6.50075C6.5 6.50075 10.6667 4.50075 13.5667 1.96742C13.9198 1.66575 14.3689 1.5 14.8333 1.5C15.2977 1.5 15.7469 1.66575 16.1 1.96742C19.0167 4.51742 23.1667 6.50075 26.5 6.50075C26.942 6.50075 27.366 6.67634 27.6785 6.98891C27.9911 7.30147 28.1667 7.72539 28.1667 8.16742V19.8341Z" stroke="#F62877" stroke-width="3" stroke-linecap="round" stroke-linejoin="round"/>
</svg>
