<svg width="35" height="35" viewBox="0 0 35 35" fill="none" xmlns="http://www.w3.org/2000/svg">
<path d="M9.83333 21.5H8.16667C6.39856 21.5 4.70286 22.2024 3.45262 23.4526C2.20238 24.7029 1.5 26.3986 1.5 28.1667V31.5M23.2517 17.5267C23.3618 17.1889 23.5769 16.8951 23.8658 16.6883C24.1546 16.4814 24.502 16.3722 24.8572 16.3767C25.2125 16.3812 25.557 16.499 25.8405 16.7131C26.124 16.9272 26.3317 17.2262 26.4333 17.5667L27.6617 19.9867C27.7812 20.2219 27.9549 20.4254 28.1684 20.5804C28.382 20.7355 28.6293 20.8376 28.89 20.8783L31.6133 21.305C31.964 21.3064 32.3053 21.4183 32.5887 21.6249C32.8721 21.8315 33.083 22.1222 33.1916 22.4557C33.3002 22.7891 33.3008 23.1483 33.1934 23.4822C33.086 23.816 32.876 24.1074 32.5933 24.315L30.64 26.2617C30.453 26.4479 30.3129 26.6758 30.2311 26.9267C30.1494 27.1776 30.1285 27.4444 30.17 27.705L30.6017 30.3933C30.7204 30.7303 30.7278 31.0965 30.6226 31.4379C30.5174 31.7793 30.3054 32.078 30.0176 32.2897C29.7299 32.5015 29.3817 32.6151 29.0244 32.614C28.6672 32.6128 28.3197 32.4969 28.0333 32.2833L25.5917 31.0333C25.3565 30.9128 25.096 30.85 24.8317 30.85C24.5674 30.85 24.3069 30.9128 24.0717 31.0333L21.63 32.2833C21.3436 32.4952 20.9969 32.6097 20.6408 32.6101C20.2846 32.6105 19.9376 32.4968 19.6508 32.2856C19.3639 32.0744 19.1523 31.7769 19.0469 31.4367C18.9414 31.0964 18.9478 30.7314 19.065 30.395L19.495 27.7067C19.5365 27.4461 19.5156 27.1793 19.4339 26.9284C19.3521 26.6775 19.212 26.4495 19.025 26.2633L17.0983 24.3417C16.8061 24.1392 16.5863 23.8486 16.4709 23.5123C16.3556 23.176 16.3508 22.8116 16.4573 22.4724C16.5638 22.1333 16.776 21.837 17.0628 21.627C17.3497 21.4169 17.6961 21.3041 18.0517 21.305L20.7733 20.8783C21.034 20.8376 21.2814 20.7355 21.4949 20.5804C21.7084 20.4254 21.8821 20.2219 22.0017 19.9867L23.2517 17.5267ZM19.8333 8.16667C19.8333 11.8486 16.8486 14.8333 13.1667 14.8333C9.48477 14.8333 6.5 11.8486 6.5 8.16667C6.5 4.48477 9.48477 1.5 13.1667 1.5C16.8486 1.5 19.8333 4.48477 19.8333 8.16667Z" stroke="#F62877" stroke-width="3" stroke-linecap="round" stroke-linejoin="round"/>
</svg>
