<svg width="54" height="49" viewBox="0 0 54 49" fill="none" xmlns="http://www.w3.org/2000/svg">
<path d="M42 47C42 41.6957 39.8929 36.6086 36.1421 32.8579C32.3914 29.1071 27.3043 27 22 27M22 27C16.6957 27 11.6086 29.1071 7.85786 32.8579C4.10714 36.6086 2 41.6957 2 47M22 27C28.9036 27 34.5 21.4036 34.5 14.5C34.5 7.59644 28.9036 2 22 2C15.0964 2 9.5 7.59644 9.5 14.5C9.5 21.4036 15.0964 27 22 27ZM52 44.5C52 36.075 47 28.25 42 24.5C43.6435 23.2669 44.9578 21.6477 45.8264 19.7857C46.6951 17.9236 47.0913 15.8762 46.98 13.8245C46.8688 11.7728 46.2535 9.78022 45.1887 8.023C44.1238 6.26578 42.6422 4.79816 40.875 3.75" stroke="#F62877" stroke-width="4" stroke-linecap="round" stroke-linejoin="round"/>
</svg>
