<svg width="54" height="52" viewBox="0 0 54 52" fill="none" xmlns="http://www.w3.org/2000/svg">
<path d="M25.817 2.73723C25.9266 2.51589 26.0958 2.32957 26.3056 2.1993C26.5155 2.06903 26.7575 2 27.0045 2C27.2515 2 27.4935 2.06903 27.7034 2.1993C27.9132 2.32957 28.0824 2.51589 28.192 2.73723L33.967 14.4347C34.3474 15.2047 34.909 15.8708 35.6036 16.3759C36.2981 16.881 37.1048 17.21 37.9545 17.3347L50.8695 19.2247C51.1142 19.2602 51.3441 19.3634 51.5332 19.5227C51.7223 19.6821 51.8631 19.8911 51.9395 20.1263C52.016 20.3614 52.0252 20.6133 51.966 20.8533C51.9068 21.0934 51.7815 21.3121 51.6045 21.4847L42.2645 30.5797C41.6485 31.18 41.1877 31.9209 40.9216 32.7388C40.6555 33.5567 40.5921 34.427 40.737 35.2747L42.942 48.1247C42.9852 48.3693 42.9588 48.6211 42.8657 48.8514C42.7727 49.0817 42.6168 49.2813 42.4159 49.4272C42.2149 49.5732 41.9769 49.6597 41.7292 49.677C41.4814 49.6942 41.2337 49.6415 41.0145 49.5247L29.4695 43.4547C28.7088 43.0553 27.8624 42.8466 27.0033 42.8466C26.1441 42.8466 25.2977 43.0553 24.537 43.4547L12.9945 49.5247C12.7753 49.6408 12.528 49.693 12.2806 49.6754C12.0333 49.6578 11.7958 49.5711 11.5952 49.4253C11.3947 49.2794 11.2391 49.0802 11.1461 48.8503C11.0532 48.6204 11.0266 48.369 11.0695 48.1247L13.272 35.2772C13.4175 34.4291 13.3545 33.5582 13.0883 32.7399C12.8222 31.9215 12.361 31.1801 11.7445 30.5797L2.4045 21.4872C2.22598 21.3148 2.09948 21.0957 2.03941 20.8549C1.97933 20.6141 1.98809 20.3613 2.0647 20.1252C2.1413 19.8891 2.28267 19.6793 2.47269 19.5197C2.66272 19.36 2.89376 19.257 3.1395 19.2222L16.052 17.3347C16.9026 17.211 17.7105 16.8824 18.406 16.3772C19.1014 15.872 19.6638 15.2054 20.0445 14.4347L25.817 2.73723Z" stroke="#F62877" stroke-width="4" stroke-linecap="round" stroke-linejoin="round"/>
</svg>
