<svg width="49" height="52" viewBox="0 0 49 52" fill="none" xmlns="http://www.w3.org/2000/svg">
<path d="M20.25 47H7C5.67392 47 4.40215 46.4732 3.46447 45.5355C2.52678 44.5979 2 43.3261 2 42V7C2 5.67392 2.52678 4.40215 3.46447 3.46447C4.40215 2.52678 5.67392 2 7 2H42C43.3261 2 44.5979 2.52678 45.5355 3.46447C46.4732 4.40215 47 5.67392 47 7V32L39.25 24.25C38.3092 23.3279 37.0426 22.8144 35.7253 22.821C34.408 22.8275 33.1466 23.3536 32.215 24.285L9.5 47M29.5 43.25L37 35.75M37 35.75L44.5 43.25M37 35.75V49.5M22 17C22 19.7614 19.7614 22 17 22C14.2386 22 12 19.7614 12 17C12 14.2386 14.2386 12 17 12C19.7614 12 22 14.2386 22 17Z" stroke="#F62877" stroke-width="4" stroke-linecap="round" stroke-linejoin="round"/>
</svg>
